#!OML:ASF F:\VICON\USERDATA\INSTALL\rory3\rory3.ASF
:FULLY-SPECIFIED
:DEGREES
3116
root -0.116809 16.3674 -2.52754 2.58726 4.38733 -5.26135
lowerback 26.3454 2.22696 -4.43802
upperback 14.4904 1.9097 -0.942221
thorax 1.47698 0.740305 1.03494
lowerneck 11.5916 -19.2503 -25.5847
upperneck -24.834 -26.5092 31.6389
head -0.798431 -14.4748 13.3737
rclavicle -1.74931e-014 3.97569e-015
rhumerus 53.1743 36.1934 -34.0626
rradius 42.233
rwrist 29.9719
rhand -6.9589 19.0771
rfingers 7.12502
rthumb 18.9104 -10.0237
lclavicle -1.74931e-014 3.97569e-015
lhumerus 52.9212 -31.3046 37.9829
lradius 34.5217
lwrist -6.72361
lhand 2.14684 27.0477
lfingers 7.12502
lthumb 27.645 55.0364
rfemur -28.3318 -5.13246 24.726
rtibia 44.409
rfoot -20.8174 -0.711629
rtoes -14.6134
lfemur -32.97 -1.00866 -10.7291
ltibia 49.4394
lfoot -19.1799 -4.33685
ltoes -19.1736
3117
root -0.11241 16.3826 -2.52571 2.6927 4.42685 -5.26613
lowerback 26.339 2.18034 -4.35012
upperback 14.4483 1.86705 -1.01468
thorax 1.43719 0.729182 0.916665
lowerneck 11.633 -19.1964 -25.5673
upperneck -25.004 -26.4104 31.8125
head -0.843264 -14.4489 13.4691
rclavicle -2.38542e-015 2.22639e-014
rhumerus 53.3708 36.2378 -33.4691
rradius 42.33
rwrist 29.7384
rhand -7.12127 18.7876
rfingers 7.12502
rthumb 18.7542 -10.3283
lclavicle -2.38542e-015 2.22639e-014
lhumerus 52.9492 -31.1972 37.798
lradius 34.5163
lwrist -6.65397
lhand 2.13939 26.875
lfingers 7.12502
lthumb 27.6379 54.8649
rfemur -28.2506 -5.12993 24.716
rtibia 44.0538
rfoot -20.6722 -0.655864
rtoes -14.6002
lfemur -32.9271 -1.08932 -10.7323
ltibia 49.1699
lfoot -19.0774 -4.33465
ltoes -19.1936
3118
root -0.108452 16.4034 -2.52277 2.7587 4.4558 -5.19589
lowerback 26.3133 2.15519 -4.3777
upperback 14.438 1.82965 -1.07809
thorax 1.44076 0.712217 0.873047
lowerneck 11.9459 -19.0568 -25.4857
upperneck -25.5555 -26.2018 32.0412
head -1.06464 -14.3922 13.6821
rclavicle 3.10104e-014 -7.15625e-015
rhumerus 53.5187 36.2101 -32.9826
rradius 42.3876
rwrist 29.5381
rhand -7.30824 18.493
rfingers 7.12502
rthumb 18.5743 -10.6402
lclavicle 3.10104e-014 -7.15625e-015
lhumerus 53.0533 -31.0992 37.5104
lradius 34.5222
lwrist -6.53303
lhand 2.13586 26.6368
lfingers 7.12502
lthumb 27.6345 54.6273
rfemur -28.1075 -5.13575 24.6172
rtibia 43.7021
rfoot -20.5823 -0.632954
rtoes -14.7163
lfemur -32.8137 -1.16262 -10.8314
ltibia 48.8738
lfoot -18.9857 -4.27411
ltoes -19.3502
3119
root -0.104291 16.418 -2.52126 2.90869 4.49563 -5.2393
lowerback 26.2171 2.10066 -4.42729
upperback 14.422 1.75572 -1.06526
thorax 1.46909 0.671177 0.935062
lowerneck 11.961 -18.9837 -25.4272
upperneck -25.8532 -26.0588 32.1344
head -1.1764 -14.3362 13.7728
rclavicle -1.51076e-014 9.54166e-015
rhumerus 53.9242 36.2339 -32.2592
rradius 42.498
rwrist 29.2133
rhand -7.32274 18.4989
rfingers 7.12502
rthumb 18.5604 -10.6356
lclavicle -1.51076e-014 9.54166e-015
lhumerus 53.1004 -30.8695 37.2529
lradius 34.458
lwrist -6.49012
lhand 2.21078 26.5449
lfingers 7.12502
lthumb 27.7062 54.5238
rfemur -28.0769 -5.06423 24.6601
rtibia 43.3497
rfoot -20.4056 -0.763205
rtoes -14.9847
lfemur -32.849 -1.1697 -10.8001
ltibia 48.5922
lfoot -18.8365 -4.24064
ltoes -19.5992
3120
root -0.100251 16.433 -2.52077 3.02698 4.54222 -5.38972
lowerback 26.1822 2.03969 -4.39192
upperback 14.364 1.68696 -1.00989
thorax 1.42042 0.637371 0.992007
lowerneck 11.9165 -18.9362 -25.4396
upperneck -25.9235 -25.9809 32.1241
head -1.20987 -14.292 13.7926
rclavicle -2.38542e-014 -7.95139e-016
rhumerus 54.4461 36.3438 -31.2738
rradius 42.6305
rwrist 28.6904
rhand -7.25794 18.7492
rfingers 7.12502
rthumb 18.6227 -10.3794
lclavicle -2.38542e-014 -7.95139e-016
lhumerus 52.9981 -30.6772 37.1517
lradius 34.4056
lwrist -6.51627
lhand 2.26029 26.6653
lfingers 7.12502
lthumb 27.7535 54.6366
rfemur -28.022 -4.95041 24.8109
rtibia 42.9996
rfoot -20.2419 -0.834454
rtoes -14.8926
lfemur -32.8648 -1.19988 -10.6313
ltibia 48.3111
lfoot -18.7281 -4.19998
ltoes -19.8771
3121
root -0.0975552 16.45 -2.51999 3.21654 4.55876 -5.42267
lowerback 26.0608 2.01188 -4.44917
upperback 14.3017 1.64485 -0.984537
thorax 1.40593 0.612413 1.06401
lowerneck 11.8723 -18.904 -25.5117
upperneck -25.9594 -25.9347 32.1496
head -1.20964 -14.2636 13.8165
rclavicle 0 -6.36111e-015
rhumerus 54.888 36.3659 -30.4138
rradius 42.7352
rwrist 28.2349
rhand -7.20705 18.8494
rfingers 7.12502
rthumb 18.6717 -10.2745
lclavicle 0 -6.36111e-015
lhumerus 53.0036 -30.5746 36.8823
lradius 34.4587
lwrist -6.38271
lhand 2.34162 27.0065
lfingers 7.12502
lthumb 27.8313 54.9653
rfemur -28.043 -4.79105 24.8381
rtibia 42.6682
rfoot -20.0763 -0.928269
rtoes -14.7151
lfemur -32.923 -1.24212 -10.5904
ltibia 48.0303
lfoot -18.6469 -4.07823
ltoes -19.9621
3122
root -0.0925944 16.465 -2.51921 3.42909 4.60304 -5.38487
lowerback 25.9286 1.95758 -4.45737
upperback 14.2616 1.58044 -1.02014
thorax 1.42536 0.581769 1.04789
lowerneck 11.825 -18.8905 -25.5533
upperneck -26.0122 -25.9002 32.2453
head -1.19979 -14.2523 13.8552
rclavicle -1.90833e-014 -1.82882e-014
rhumerus 55.0935 36.1743 -30.0016
rradius 42.7161
rwrist 28.1771
rhand -7.18261 19.0891
rfingers 7.12502
rthumb 18.6952 -10.0325
lclavicle -1.90833e-014 -1.82882e-014
lhumerus 53.0857 -30.3929 36.7008
lradius 34.4173
lwrist -6.37087
lhand 2.44423 27.2246
lfingers 7.12502
lthumb 27.9294 55.1675
rfemur -28.1008 -4.72084 24.7885
rtibia 42.3565
rfoot -19.9438 -0.994398
rtoes -15.0776
lfemur -33.0034 -1.31476 -10.6325
ltibia 47.742
lfoot -18.4806 -4.07238
ltoes -19.5476
